<svg width="1440" height="372" viewBox="0 0 1440 372" fill="none" xmlns="http://www.w3.org/2000/svg">
<path fill-rule="evenodd" clip-rule="evenodd" d="M-35 0L-7.42009 56.7939C20.1598 110.748 75.3196 224.336 133.927 255.573C189.087 283.969 244.247 235.695 299.406 241.374C358.014 247.053 413.174 309.527 468.333 283.969C523.493 261.252 578.653 147.664 637.26 130.626C692.42 110.748 747.58 184.58 802.74 187.42C861.347 184.58 916.507 110.748 971.667 73.8321C1026.83 36.916 1081.99 36.916 1140.59 93.7099C1195.75 147.664 1250.91 261.252 1306.07 283.969C1364.68 309.527 1419.84 247.053 1447.42 215.817L1475 187.42V372H1447.42C1419.84 372 1364.68 372 1306.07 372C1250.91 372 1195.75 372 1140.59 372C1081.99 372 1026.83 372 971.667 372C916.507 372 861.347 372 802.74 372C747.58 372 692.42 372 637.26 372C578.653 372 523.493 372 468.333 372C413.174 372 358.014 372 299.406 372C244.247 372 189.087 372 133.927 372C75.3196 372 20.1598 372 -7.42009 372H-35V0Z" fill="#FFE410"/>
</svg>
