<svg width="1440" height="161" viewBox="0 0 1440 161" fill="none" xmlns="http://www.w3.org/2000/svg">
<path fill-rule="evenodd" clip-rule="evenodd" d="M-35 161L-7.42009 136.42C20.1598 113.069 75.3196 63.9084 133.927 50.3893C189.087 38.0992 244.247 58.9924 299.406 56.5344C358.014 54.0763 413.174 27.0382 468.333 38.0992C523.493 47.9313 578.653 97.0916 637.26 104.466C692.42 113.069 747.58 81.1145 802.74 79.8855C861.347 81.1145 916.507 113.069 971.667 129.046C1026.83 145.023 1081.99 145.023 1140.59 120.443C1195.75 97.0916 1250.91 47.9313 1306.07 38.0992C1364.68 27.0382 1419.84 54.0763 1447.42 67.5954L1475 79.8855V0H1447.42C1419.84 0 1364.68 0 1306.07 0C1250.91 0 1195.75 0 1140.59 0C1081.99 0 1026.83 0 971.667 0C916.507 0 861.347 0 802.74 0C747.58 0 692.42 0 637.26 0C578.653 0 523.493 0 468.333 0C413.174 0 358.014 0 299.406 0C244.247 0 189.087 0 133.927 0C75.3196 0 20.1598 0 -7.42009 0H-35V161Z" fill="#FFE410"/>
</svg>
