<svg width="1440" height="360" xmlns="http://www.w3.org/2000/svg" fill="none">
    <g>
        <title>Layer 1</title>
        <path fill-rule="evenodd" clip-rule="evenodd"
              d="m-97.56463,65.69238l28.14191,56.7939c63.85509,417.9541 84.42569,167.5421 144.22734,198.7791c56.284,28.396 112.56801,-19.878 168.85099,-14.199c59.80226,5.679 116.08627,68.153 172.36925,42.595c56.284,-22.717 115.56801,-92.305 175.36925,-109.343c56.284,-19.878 113.56801,38.954 169.85201,41.794c59.80124,-2.84 143.08218,-62.6718 183.36925,-95.5879c40.28707,-32.9161 88.59145,-38.9161 135.40593,27.8778c46.81448,66.7939 134.52725,112.5421 190.81126,135.2591c59.80431,25.558 116.08831,-36.916 144.23031,-68.152l28.142,-28.397l0,184.58l-28.142,0c-28.142,0 -84.42601,0 -144.23031,0c-56.284,0 -112.56801,0 -168.85201,0c-59.7941,0 -116.07811,0 -172.36517,0c-56.284,0 -112.56801,0 -172.36925,0c-56.284,0 -112.56801,0 -168.85201,0c-59.80124,0 -116.08525,0 -172.36925,0c-56.28298,0 -112.56699,0 -172.36925,0c-56.28298,0 -112.56699,0 -168.85099,0c-59.80165,0 -108.94281,37 -144.22734,0l-28.14191,0l0,-372l-0.00001,0z"
              fill="#FFE410" id="svg_1" stroke="null"/>
    </g>

</svg>