<svg xmlns="http://www.w3.org/2000/svg" width="1440" height="161" fill="none" style=""><rect id="backgroundrect" width="100%" height="100%" x="0" y="0" fill="none" stroke="none"/>

<g class="currentLayer" style=""><title>Layer 1</title><path fill-rule="evenodd" clip-rule="evenodd" d="M-35,161L-7.42009,136.42C20.1598,113.069 75.3196,63.9084 133.927,50.3893C189.087,38.0992 254.52097,17.21158 309.67997,14.75358C368.28797,12.29548 409.06441,44.16149 468.333,38.0992C523.493,47.9313 539.61191,5.99571 598.21891,13.37011C653.37891,21.97311 663.99601,36.19075 721.91808,38.10468C779.84015,40.01861 917.87686,-10.21867 977.14645,31.1008C1036.41604,72.42027 1075.14069,92.96821 1133.74069,68.38821C1188.90069,45.03681 1250.91,47.9313 1306.07,38.0992C1364.68,27.0382 1419.84,54.0763 1447.42,67.5954L1475,79.8855L1475,0L1447.42,0C1419.84,0 1364.68,0 1306.07,0C1250.91,0 1195.75,0 1140.59,0C1081.99,0 1026.83,0 971.667,0C916.507,0 861.347,0 802.74,0C747.58,0 692.42,0 637.26,0C578.653,0 523.493,0 468.333,0C413.174,0 358.014,0 299.406,0C244.247,0 189.087,0 133.927,0C75.3196,0 20.1598,0 -7.42009,0L-35,0L-35,161z" fill="#FFE410" id="svg_1" class=""/></g></svg>